<svg width="15" height="14" viewBox="0 0 15 14" fill="none" xmlns="http://www.w3.org/2000/svg">
<path fill-rule="evenodd" clip-rule="evenodd" d="M5.56069 1.8534C4.9749 1.26762 4.02515 1.26762 3.43937 1.8534L2.56069 2.73208C1.58438 3.70839 1.58438 5.2913 2.56069 6.26761L7.73226 11.4392C8.70857 12.4155 10.2915 12.4155 11.2678 11.4392L12.1465 10.5605C12.7323 9.97472 12.7323 9.02498 12.1465 8.43919L11.0607 7.3534C10.4749 6.76762 9.52515 6.76762 8.93937 7.3534L8.50003 7.79274L6.20714 5.49985L6.64648 5.06051C7.23226 4.47472 7.23226 3.52498 6.64648 2.93919L5.56069 1.8534ZM4.14647 2.56051C4.34174 2.36525 4.65832 2.36525 4.85358 2.56051L5.93937 3.6463C6.13463 3.84156 6.13463 4.15814 5.93937 4.3534L5.14648 5.1463C4.95121 5.34156 4.95121 5.65814 5.14648 5.8534L8.14648 8.8534C8.34174 9.04866 8.65832 9.04866 8.85358 8.8534L9.64647 8.06051C9.84174 7.86525 10.1583 7.86525 10.3536 8.06051L11.4394 9.1463C11.6346 9.34156 11.6346 9.65814 11.4394 9.8534L10.5607 10.7321C9.9749 11.3179 9.02515 11.3179 8.43937 10.7321L3.26779 5.56051C2.68201 4.97472 2.68201 4.02498 3.2678 3.43919L4.14647 2.56051Z" fill="#18212D"/>
</svg>
