<svg width="42" height="42" viewBox="0 0 42 42" fill="none" xmlns="http://www.w3.org/2000/svg">
<rect x="41.5" y="41.5" width="41" height="41" rx="1.5" transform="rotate(-180 41.5 41.5)" stroke="#18212D"/>
<path fill-rule="evenodd" clip-rule="evenodd" d="M12 21C12 21.5523 12.4228 22 12.9444 22L25.7755 22L20.7766 27.2929C20.4078 27.6834 20.4078 28.3166 20.7766 28.7071C21.1454 29.0976 21.7434 29.0976 22.1123 28.7071L28.7234 21.7071C29.0922 21.3166 29.0922 20.6834 28.7234 20.2929L22.1123 13.2929C21.7434 12.9024 21.1454 12.9024 20.7766 13.2929C20.4078 13.6834 20.4078 14.3166 20.7766 14.7071L25.7755 20L12.9444 20C12.4228 20 12 20.4477 12 21Z" fill="#18212D"/>
</svg>
